<?xml version="1.0" standalone="no"?>
<!DOCTYPE svg PUBLIC "-//W3C//DTD SVG 20010904//EN"
 "http://www.w3.org/TR/2001/REC-SVG-20010904/DTD/svg10.dtd">
<svg version="1.0" xmlns="http://www.w3.org/2000/svg"
 width="290.000000pt" height="290.000000pt" viewBox="0 0 290.000000 290.000000"
 preserveAspectRatio="xMidYMid meet">
<metadata>
Created by potrace 1.11, written by Peter Selinger 2001-2013
</metadata>
<g transform="translate(0.000000,290.000000) scale(0.100000,-0.100000)"
fill="#000000" stroke="none">
<path d="M1520 1400 c0 -1133 0 -1140 20 -1140 19 0 20 7 20 180 l0 180 85 0
c50 0 85 4 85 10 0 6 -9 10 -21 10 -38 0 -56 18 -63 62 -8 51 -11 546 -4 554
3 2 10 -15 16 -38 6 -24 23 -88 37 -143 15 -55 28 -111 29 -125 2 -14 9 -45
16 -70 7 -25 14 -56 16 -70 2 -14 10 -50 18 -80 9 -30 17 -67 20 -81 5 -25 9
-26 71 -28 59 -1 65 1 65 19 0 11 6 46 14 78 24 95 46 199 46 217 0 9 8 47 19
83 10 37 28 108 41 157 39 161 40 158 41 -122 0 -65 5 -123 10 -129 7 -8 6
-14 -1 -19 -6 -4 -10 -55 -10 -131 l0 -124 -30 -6 c-75 -16 -13 -23 193 -22
210 0 285 7 207 18 l-35 5 -3 319 c-2 227 1 323 9 332 6 8 23 14 38 14 22 1
24 2 8 11 -9 5 -21 8 -26 4 -5 -3 -92 -5 -193 -5 l-184 -1 -12 -42 c-6 -23
-17 -64 -23 -92 -7 -27 -15 -54 -19 -58 -4 -4 -17 32 -29 80 -12 48 -24 94
-26 101 -3 9 -53 12 -205 12 l-200 0 0 610 c0 603 0 610 -20 610 -20 0 -20 -7
-20 -1140z m755 -100 c3 -5 1 -10 -4 -10 -6 0 -11 5 -11 10 0 6 2 10 4 10 3 0
8 -4 11 -10z m-655 -301 c0 -185 -4 -308 -10 -319 -6 -11 -19 -24 -30 -30 -20
-11 -20 -6 -20 320 l0 330 30 0 30 0 0 -301z m635 258 c11 -12 10 -16 -6 -28
-23 -16 -25 -42 -4 -59 8 -7 15 -17 15 -22 0 -7 -4 -7 -12 0 -10 8 -13 3 -14
-19 -1 -18 4 -29 12 -29 8 0 13 5 12 11 -2 6 3 14 10 16 6 3 12 -3 12 -12 0
-15 2 -16 17 -4 11 10 14 10 9 2 -4 -7 -3 -13 3 -13 5 0 13 5 16 10 13 21 35
10 35 -17 0 -17 -3 -23 -8 -16 -9 14 -52 13 -52 0 0 -5 -6 -4 -14 2 -11 9 -16
9 -21 0 -6 -8 -10 -7 -17 2 -6 9 -7 5 -2 -12 3 -15 1 -30 -4 -33 -6 -3 -7 -20
-3 -38 9 -37 4 -58 -12 -58 -5 0 -7 3 -4 6 3 4 2 15 -3 25 -7 12 -7 20 0 24 6
4 7 12 3 18 -4 7 -8 26 -8 42 0 20 -5 30 -15 30 -8 0 -15 -5 -15 -12 0 -25
-16 -25 -39 -1 l-23 26 27 5 c15 3 36 4 47 1 17 -5 21 -1 21 20 0 26 -17 38
-19 14 0 -10 -2 -10 -6 -1 -7 19 -4 28 10 28 7 0 12 15 12 40 1 38 10 65 21
65 3 0 11 -6 19 -13z m-55 -47 c0 -5 0 -12 0 -15 0 -14 -13 -8 -16 8 -1 9 2
17 7 17 5 0 9 -4 9 -10z m-257 -90 c-8 -29 -21 -25 -15 5 2 14 8 23 12 20 5
-3 6 -14 3 -25z m-162 -3 c-13 -13 -26 -3 -16 12 3 6 11 8 17 5 6 -4 6 -10 -1
-17z m122 17 c-7 -3 -10 -11 -7 -18 3 -7 -2 -13 -10 -13 -11 0 -13 5 -5 19 5
10 15 18 22 17 9 0 9 -2 0 -5z m267 -4 c0 -5 -4 -10 -10 -10 -5 0 -10 5 -10
10 0 6 5 10 10 10 6 0 10 -4 10 -10z m-290 -50 c0 -5 -5 -10 -11 -10 -5 0 -7
5 -4 10 3 6 8 10 11 10 2 0 4 -4 4 -10z m-109 -17 c13 -16 12 -17 -3 -4 -17
13 -22 21 -14 21 2 0 10 -8 17 -17z m29 2 c0 -8 -2 -15 -4 -15 -2 0 -6 7 -10
15 -3 8 -1 15 4 15 6 0 10 -7 10 -15z m130 5 c0 -5 -5 -10 -11 -10 -5 0 -7 5
-4 10 3 6 8 10 11 10 2 0 4 -4 4 -10z m-73 -16 c-3 -3 -12 -4 -19 -1 -8 3 -5
6 6 6 11 1 17 -2 13 -5z m83 -44 c0 -16 -4 -30 -8 -30 -5 0 -7 14 -4 30 2 17
6 30 8 30 2 0 4 -13 4 -30z m-80 -5 c0 -2 -7 -5 -15 -9 -9 -3 -15 0 -15 9 0 9
6 12 15 9 8 -4 15 -7 15 -9z m-77 -2 c-7 -2 -19 -2 -25 0 -7 3 -2 5 12 5 14 0
19 -2 13 -5z m357 -9 c0 -8 -4 -12 -10 -9 -5 3 -10 10 -10 16 0 5 5 9 10 9 6
0 10 -7 10 -16z m-203 -50 c-3 -3 -12 -4 -19 -1 -8 3 -5 6 6 6 11 1 17 -2 13
-5z m264 -18 c-6 -7 -6 -17 -1 -26 6 -8 10 -17 10 -20 0 -10 -39 -9 -45 1 -4
5 0 9 7 10 7 0 4 4 -7 9 -11 5 -14 9 -7 9 19 1 43 27 34 36 -4 5 -1 5 6 1 9
-5 10 -12 3 -20z m79 4 c0 -5 -4 -10 -10 -10 -5 0 -10 5 -10 10 0 6 5 10 10
10 6 0 10 -4 10 -10z m-34 -24 c3 -8 4 -24 2 -35 -4 -27 -23 -14 -32 22 -5 21
-3 27 9 27 9 0 18 -6 21 -14z m-340 -93 c-10 -10 -19 5 -10 18 6 11 8 11 12 0
2 -7 1 -15 -2 -18z m254 7 c0 -5 -7 -10 -16 -10 -8 0 -12 5 -9 10 3 6 10 10
16 10 5 0 9 -4 9 -10z m87 -12 c-3 -8 -6 -5 -6 6 -1 11 2 17 5 13 3 -3 4 -12
1 -19z m-70 -60 c-3 -8 -6 -5 -6 6 -1 11 2 17 5 13 3 -3 4 -12 1 -19z"/>
<path d="M750 2210 c0 -5 16 -10 35 -10 l35 0 0 -122 c1 -455 1 -467 -15 -498
-16 -31 -46 -44 -86 -38 -22 3 -30 23 -10 23 12 0 44 34 60 63 13 25 5 88 -16
120 -8 13 -31 30 -50 39 -82 34 -153 -18 -153 -112 0 -50 2 -55 47 -94 68 -59
125 -69 268 -48 107 15 131 23 186 60 22 15 54 64 49 76 -1 2 2 7 8 10 27 18
36 84 41 301 l6 225 33 -1 c17 -1 32 2 32 7 0 5 -103 9 -235 9 -150 0 -235 -4
-235 -10z m250 -20 c0 -5 -8 -10 -17 -10 -15 0 -16 2 -3 10 19 12 20 12 20 0z
m-20 -40 c0 -5 -7 -7 -15 -4 -8 4 -15 8 -15 10 0 2 7 4 15 4 8 0 15 -4 15 -10z
m144 -31 c-8 -14 -24 -10 -24 6 0 9 6 12 15 9 8 -4 12 -10 9 -15z m-169 2 c3
-5 1 -12 -5 -16 -5 -3 -10 1 -10 9 0 18 6 21 15 7z m40 -1 c3 -5 2 -10 -4 -10
-5 0 -13 5 -16 10 -3 6 -2 10 4 10 5 0 13 -4 16 -10z m65 -22 c0 -13 -23 -5
-28 10 -2 7 2 10 12 6 9 -3 16 -11 16 -16z m72 -17 c4 -3 -14 -6 -40 -7 -26
-1 -36 1 -23 3 19 4 21 7 10 14 -9 7 -4 7 16 3 17 -4 33 -9 37 -13z m-172 -22
c0 -5 -7 -9 -15 -9 -15 0 -20 12 -9 23 8 8 24 -1 24 -14z m141 -9 c-8 -4 -21
-5 -30 -2 -12 5 -10 8 9 12 29 8 40 3 21 -10z m-207 -75 c-4 -8 -11 -12 -16
-9 -6 4 -5 10 3 15 19 12 19 11 13 -6z m62 0 c-3 -9 1 -18 9 -21 8 -4 15 -14
15 -23 -1 -14 -2 -14 -13 -1 -13 17 -67 21 -67 6 0 -5 -3 -7 -6 -4 -11 11 17
50 32 44 8 -3 14 -1 14 4 0 6 5 10 11 10 6 0 8 -7 5 -15z m144 -15 c-19 -12
-30 -12 -30 -1 0 10 31 20 40 14 2 -2 -2 -8 -10 -13z m-34 -57 c-11 -11 -19 6
-11 24 8 17 8 17 12 0 3 -10 2 -21 -1 -24z m-36 -2 c-13 -24 -30 -28 -30 -6 0
8 7 15 15 15 8 0 15 5 15 12 0 6 3 9 6 6 3 -4 1 -16 -6 -27z m65 19 c3 -5 1
-10 -4 -10 -6 0 -11 5 -11 10 0 6 2 10 4 10 3 0 8 -4 11 -10z m-112 -18 c4 9
6 8 6 -3 1 -9 -6 -20 -15 -23 -27 -11 -37 -7 -24 9 11 13 10 15 -6 9 -15 -5
-16 -4 -4 4 9 7 18 7 26 1 8 -7 14 -6 17 3z m-103 -12 c0 -5 -7 -7 -15 -4 -8
4 -15 8 -15 10 0 2 7 4 15 4 8 0 15 -4 15 -10z m108 -39 c-6 -10 -18 -17 -25
-14 -9 4 -11 0 -7 -11 4 -9 1 -16 -6 -16 -7 0 -10 -7 -6 -15 4 -10 -1 -15 -15
-15 -11 0 -17 5 -14 10 3 6 -2 10 -12 11 -14 0 -15 2 -3 6 8 3 30 19 48 34 38
33 58 38 40 10z m-78 -1 c0 -5 -7 -10 -16 -10 -8 0 -12 5 -9 10 3 6 10 10 16
10 5 0 9 -4 9 -10z m170 -25 c0 -8 -4 -15 -10 -15 -5 0 -7 7 -4 15 4 8 8 15
10 15 2 0 4 -7 4 -15z m4 -40 c-4 -8 -8 -15 -10 -15 -2 0 -4 7 -4 15 0 8 4 15
10 15 5 0 7 -7 4 -15z m-144 -36 c0 -6 -4 -7 -10 -4 -5 3 -10 11 -10 16 0 6 5
7 10 4 6 -3 10 -11 10 -16z m-243 -5 c-3 -3 -12 -4 -19 -1 -8 3 -5 6 6 6 11 1
17 -2 13 -5z m203 -9 c7 -9 8 -15 2 -15 -5 0 -12 7 -16 15 -3 8 -4 15 -2 15 2
0 9 -7 16 -15z m-300 -5 c0 -5 -2 -10 -4 -10 -3 0 -8 5 -11 10 -3 6 -1 10 4
10 6 0 11 -4 11 -10z m400 -34 c0 -8 -4 -17 -9 -21 -6 -3 -9 4 -8 15 1 23 17
28 17 6z m24 -34 c3 -5 -1 -9 -9 -9 -8 0 -12 4 -9 9 3 4 7 8 9 8 2 0 6 -4 9
-8z m-37 -8 c-3 -3 -12 -4 -19 -1 -8 3 -5 6 6 6 11 1 17 -2 13 -5z m-292 -14
c3 -5 1 -10 -4 -10 -6 0 -11 5 -11 10 0 6 2 10 4 10 3 0 8 -4 11 -10z"/>
</g>
</svg>
